<svg width="512" height="370" viewBox="0 0 512 370" fill="none" xmlns="http://www.w3.org/2000/svg">
<g id="code">
<path id="Vector" d="M474.5 0.5H448.239C444.096 0.5 440.739 3.857 440.739 8C440.739 12.143 444.096 15.5 448.239 15.5H474.5C486.906 15.5 497 25.594 497 38V72.5H15V38C15 25.594 25.093 15.5 37.5 15.5H415.309C419.452 15.5 422.809 12.143 422.809 8C422.809 3.857 419.452 0.5 415.309 0.5H37.5C16.822 0.5 0 17.322 0 38V120.681C0 124.824 3.358 128.181 7.5 128.181C11.642 128.181 15 124.824 15 120.681V87.5H497V280.866C497 285.009 500.357 288.366 504.5 288.366C508.643 288.366 512 285.009 512 280.866V38C512 17.322 495.178 0.5 474.5 0.5V0.5Z" fill="#FFBB37"/>
<path id="Vector_2" d="M504.5 304.994C500.357 304.994 497 308.351 497 312.494V332C497 344.406 486.906 354.5 474.5 354.5H37.5C25.093 354.5 15 344.406 15 332V152.867C15 148.724 11.642 145.367 7.5 145.367C3.358 145.367 0 148.724 0 152.867V332C0 352.678 16.822 369.5 37.5 369.5H474.5C495.178 369.5 512 352.678 512 332V312.494C512 308.352 508.643 304.994 504.5 304.994Z" fill="#FFBB37"/>
<path id="Vector_3" d="M108.482 163.457C105.553 160.529 100.804 160.529 97.876 163.457L52.806 208.527C51.399 209.934 50.609 211.841 50.609 213.831C50.609 215.821 51.399 217.727 52.806 219.135L97.28 263.609C98.744 265.073 100.664 265.805 102.583 265.805C104.502 265.805 106.422 265.073 107.886 263.609C110.815 260.679 110.815 255.931 107.886 253.002L68.715 213.832L108.482 174.065C111.412 171.135 111.412 166.387 108.482 163.457V163.457Z" fill="#FFBB37"/>
<path id="Vector_4" d="M209.344 263.608C210.808 265.072 212.728 265.804 214.647 265.804C216.566 265.804 218.486 265.072 219.95 263.608L264.425 219.134C265.831 217.727 266.621 215.82 266.621 213.83C266.621 211.84 265.831 209.934 264.425 208.526L219.354 163.456C216.425 160.528 211.676 160.528 208.748 163.456C205.819 166.386 205.819 171.134 208.748 174.063L248.516 213.83L209.345 253C206.415 255.931 206.415 260.679 209.344 263.608V263.608Z" fill="#FFBB37"/>
<path id="Vector_5" d="M131.99 291.234C135.015 291.234 137.866 289.39 139.003 286.393L192.297 145.995C193.767 142.122 191.819 137.791 187.947 136.321C184.075 134.85 179.743 136.799 178.274 140.671L124.98 281.071C123.51 284.943 125.458 289.274 129.33 290.744C130.206 291.077 131.105 291.234 131.99 291.234V291.234Z" fill="#FFBB37"/>
<path id="Vector_6" d="M33.006 44.371C33.006 56.777 43.099 66.871 55.506 66.871C67.913 66.871 78.006 56.777 78.006 44.371C78.006 31.965 67.913 21.871 55.506 21.871C43.099 21.871 33.006 31.965 33.006 44.371V44.371ZM63.006 44.371C63.006 48.507 59.642 51.871 55.506 51.871C51.37 51.871 48.006 48.507 48.006 44.371C48.006 40.235 51.37 36.871 55.506 36.871C59.642 36.871 63.006 40.235 63.006 44.371Z" fill="#FFBB37"/>
<path id="Vector_7" d="M91.166 44.371C91.166 56.777 101.259 66.871 113.666 66.871C126.073 66.871 136.166 56.777 136.166 44.371C136.166 31.965 126.073 21.871 113.666 21.871C101.259 21.871 91.166 31.965 91.166 44.371V44.371ZM121.166 44.371C121.166 48.507 117.802 51.871 113.666 51.871C109.53 51.871 106.166 48.507 106.166 44.371C106.166 40.235 109.53 36.871 113.666 36.871C117.802 36.871 121.166 40.235 121.166 44.371Z" fill="#FFBB37"/>
<path id="Vector_8" d="M149.325 44.371C149.325 56.777 159.418 66.871 171.825 66.871C184.232 66.871 194.325 56.777 194.325 44.371C194.325 31.965 184.232 21.871 171.825 21.871C159.418 21.871 149.325 31.965 149.325 44.371V44.371ZM179.325 44.371C179.325 48.507 175.961 51.871 171.825 51.871C167.689 51.871 164.325 48.507 164.325 44.371C164.325 40.235 167.689 36.871 171.825 36.871C175.961 36.871 179.325 40.235 179.325 44.371Z" fill="#FFBB37"/>
<path id="Vector_9" d="M335.5 171.368H382.5C394.906 171.368 405 161.274 405 148.868C405 136.462 394.906 126.368 382.5 126.368H335.5C323.094 126.368 313 136.462 313 148.868C313 161.274 323.094 171.368 335.5 171.368ZM335.5 141.368H382.5C386.636 141.368 390 144.732 390 148.868C390 153.004 386.636 156.368 382.5 156.368H335.5C331.364 156.368 328 153.004 328 148.868C328 144.732 331.364 141.368 335.5 141.368Z" fill="#FFBB37"/>
<path id="Vector_10" d="M335.5 231.368H459.5C471.906 231.368 482 221.274 482 208.868C482 196.462 471.906 186.368 459.5 186.368H335.5C323.094 186.368 313 196.462 313 208.868C313 221.274 323.094 231.368 335.5 231.368ZM335.5 201.368H459.5C463.636 201.368 467 204.732 467 208.868C467 213.004 463.636 216.368 459.5 216.368H335.5C331.364 216.368 328 213.004 328 208.868C328 204.732 331.364 201.368 335.5 201.368Z" fill="#FFBB37"/>
<path id="Vector_11" d="M335.5 291.368H422.665C435.071 291.368 445.165 281.274 445.165 268.868C445.165 256.462 435.071 246.368 422.665 246.368H335.5C323.094 246.368 313 256.462 313 268.868C313 281.274 323.094 291.368 335.5 291.368ZM335.5 261.368H422.665C426.801 261.368 430.165 264.732 430.165 268.868C430.165 273.004 426.801 276.368 422.665 276.368H335.5C331.364 276.368 328 273.004 328 268.868C328 264.732 331.364 261.368 335.5 261.368Z" fill="#FFBB37"/>
</g>
</svg>
