<svg width="512" height="380" viewBox="0 0 512 380" fill="none" xmlns="http://www.w3.org/2000/svg">
	<g id="contact">
		<path id="Vector" d="M207.4 56.931C205.54 55.07 202.97 54 200.33 54C197.7 54 195.12 55.07 193.26 56.931C191.4 58.79 190.33 61.37 190.33 64C190.33 66.63 191.4 69.21 193.26 71.07C195.12 72.93 197.7 74 200.33 74C202.97 74 205.54 72.931 207.4 71.07C209.27 69.21 210.33 66.63 210.33 64C210.33 61.37 209.27 58.79 207.4 56.931Z" fill="#FFBB37"/>
		<path id="Vector_2" d="M112.96 265.87C111.1 264.01 108.52 262.94 105.88 262.94C103.25 262.94 100.68 264.01 98.81 265.87C96.95 267.73 95.89 270.31 95.89 272.94C95.89 275.58 96.95 278.15 98.81 280.01C100.68 281.88 103.25 282.94 105.88 282.94C108.52 282.94 111.1 281.88 112.96 280.01C114.82 278.15 115.88 275.58 115.88 272.94C115.88 270.31 114.82 267.73 112.96 265.87Z" fill="#FFBB37"/>
		<path id="Vector_3" d="M462 0H50C22.43 0 0 22.43 0 50V330C0 357.57 22.43 380 50 380H462C489.57 380 512 357.57 512 330V50C512 22.43 489.57 0 462 0ZM450.803 20L416.803 54H241.254C235.731 54 231.254 58.478 231.254 64C231.254 69.522 235.731 74 241.254 74H396.803L368.803 102H294.827C289.304 102 284.827 106.478 284.827 112C284.827 117.522 289.304 122 294.827 122H348.803L299.902 170.901C275.694 195.108 236.306 195.108 212.098 170.901L61.197 20H450.803ZM462 360H50C45.065 360 40.408 358.794 36.297 356.674L83.926 309.045C87.831 305.14 87.831 298.808 83.926 294.903C81.973 292.95 79.414 291.974 76.855 291.974C74.296 291.974 71.736 292.951 69.784 294.903L22.567 342.12C20.922 338.411 20 334.312 20 330V50C20 38.39 26.634 28.307 36.306 23.322C36.517 23.58 36.743 23.831 36.984 24.072L188.8 175.887L125.654 239.033C121.749 242.938 121.749 249.27 125.654 253.176C129.559 257.082 135.891 257.081 139.797 253.176L203.171 189.801C233.602 215.436 278.399 215.436 308.831 189.801L475.704 356.675C471.592 358.794 466.935 360 462 360ZM492 330C492 334.312 491.078 338.411 489.433 342.12L323.201 175.886L475.017 24.071C475.258 23.83 475.483 23.58 475.695 23.321C485.366 28.307 492 38.39 492 50V330Z" fill="#FFBB37"/>
	</g>
</svg>
