<svg width="360" height="245" viewBox="0 0 360 245" fill="none" xmlns="http://www.w3.org/2000/svg">
<g id="project-svg" clip-path="url(#clip0)">
<g id="project">
<g id="OBJECTS">
<path id="Vector" d="M352 0H8C3.58172 0 0 3.58172 0 8V236.66C0 241.078 3.58172 244.66 8 244.66H352C356.418 244.66 360 241.078 360 236.66V8C360 3.58172 356.418 0 352 0Z" fill="#CEDFE7"/>
<path id="Vector_2" d="M344.61 97.5H282.25C280.731 97.5 279.5 98.7312 279.5 100.25V140.25C279.5 141.769 280.731 143 282.25 143H344.61C346.129 143 347.36 141.769 347.36 140.25V100.25C347.36 98.7312 346.129 97.5 344.61 97.5Z" fill="white"/>
<path id="Vector_3" d="M340.07 121.33H286.78C285.863 121.33 285.12 122.073 285.12 122.99V134.26C285.12 135.177 285.863 135.92 286.78 135.92H340.07C340.987 135.92 341.73 135.177 341.73 134.26V122.99C341.73 122.073 340.987 121.33 340.07 121.33Z" fill="#E0E9F8"/>
<path id="Vector_4" d="M333 102.38C333.238 102.378 333.472 102.447 333.67 102.578C333.869 102.709 334.025 102.896 334.117 103.116C334.209 103.336 334.233 103.578 334.187 103.812C334.141 104.045 334.027 104.26 333.859 104.428C333.69 104.597 333.475 104.711 333.242 104.757C333.008 104.803 332.766 104.779 332.546 104.687C332.326 104.595 332.139 104.439 332.008 104.24C331.877 104.042 331.808 103.808 331.81 103.57C331.81 103.254 331.935 102.952 332.159 102.729C332.382 102.505 332.684 102.38 333 102.38V102.38Z" fill="#C2C9E9"/>
<path id="Vector_5" d="M337.37 102.38C337.608 102.38 337.84 102.451 338.038 102.583C338.235 102.715 338.389 102.903 338.48 103.123C338.57 103.343 338.593 103.585 338.546 103.818C338.499 104.051 338.384 104.265 338.215 104.432C338.046 104.599 337.831 104.713 337.598 104.758C337.365 104.803 337.123 104.778 336.904 104.686C336.685 104.593 336.498 104.438 336.367 104.239C336.237 104.041 336.168 103.808 336.17 103.57C336.17 103.413 336.201 103.257 336.262 103.112C336.322 102.967 336.411 102.836 336.522 102.725C336.634 102.614 336.766 102.527 336.912 102.468C337.057 102.408 337.213 102.379 337.37 102.38V102.38Z" fill="#C2C9E9"/>
<path id="Vector_6" d="M341.73 102.38C341.968 102.378 342.202 102.447 342.4 102.578C342.599 102.709 342.755 102.896 342.847 103.116C342.939 103.336 342.963 103.578 342.917 103.812C342.871 104.045 342.757 104.26 342.589 104.428C342.42 104.597 342.205 104.711 341.972 104.757C341.738 104.803 341.496 104.779 341.276 104.687C341.056 104.595 340.869 104.439 340.738 104.24C340.607 104.042 340.538 103.808 340.54 103.57C340.54 103.254 340.665 102.952 340.889 102.729C341.112 102.505 341.414 102.38 341.73 102.38V102.38Z" fill="#C2C9E9"/>
<path id="Vector_7" d="M290.02 116.44C292.516 116.44 294.54 114.416 294.54 111.92C294.54 109.424 292.516 107.4 290.02 107.4C287.524 107.4 285.5 109.424 285.5 111.92C285.5 114.416 287.524 116.44 290.02 116.44Z" fill="#A4B5E9"/>
<path id="Vector_8" d="M340.68 109.01H299.83C299.46 109.01 299.16 109.31 299.16 109.68V114.01C299.16 114.38 299.46 114.68 299.83 114.68H340.68C341.05 114.68 341.35 114.38 341.35 114.01V109.68C341.35 109.31 341.05 109.01 340.68 109.01Z" fill="#E0E9F8"/>
<path id="Vector_9" d="M360 20V8C360 5.87827 359.157 3.84344 357.657 2.34315C356.157 0.842855 354.122 0 352 0L8 0C5.87827 0 3.84344 0.842855 2.34315 2.34315C0.842855 3.84344 0 5.87827 0 8L0 20H360Z" fill="#7736F6"/>
<path id="Vector_10" d="M360 46.5H0V87.5H360V46.5Z" fill="url(#paint0_linear)"/>
<path id="Vector_11" d="M330.5 25.13H31.63C29.4209 25.13 27.63 26.9209 27.63 29.13V37.51C27.63 39.7191 29.4209 41.51 31.63 41.51H330.5C332.709 41.51 334.5 39.7191 334.5 37.51V29.13C334.5 26.9209 332.709 25.13 330.5 25.13Z" fill="white"/>
<path id="Vector_12" d="M353.88 28.31H340.83" stroke="#8DAEE6" stroke-width="1.5" stroke-linecap="round" stroke-linejoin="round"/>
<path id="Vector_13" d="M353.88 33.31H340.83" stroke="#8DAEE6" stroke-width="1.5" stroke-linecap="round" stroke-linejoin="round"/>
<path id="Vector_14" d="M353.88 38.31H340.83" stroke="#8DAEE6" stroke-width="1.5" stroke-linecap="round" stroke-linejoin="round"/>
<path id="Vector_15" d="M12.93 26.84L6.99999 31.21C6.77683 31.4489 6.65186 31.7631 6.64999 32.09V39.29C6.64999 39.5181 6.7406 39.7368 6.90188 39.8981C7.06316 40.0594 7.28191 40.15 7.50999 40.15H11C11.1125 40.15 11.2238 40.1277 11.3276 40.0844C11.4314 40.041 11.5255 39.9775 11.6046 39.8975C11.6837 39.8175 11.7461 39.7226 11.7882 39.6184C11.8303 39.5141 11.8513 39.4025 11.85 39.29V34.73C11.8423 34.2564 12.0029 33.7955 12.3032 33.4292C12.6035 33.063 13.0241 32.8152 13.49 32.73C13.7629 32.6898 14.0413 32.7088 14.3061 32.7859C14.571 32.8629 14.8162 32.9961 15.0249 33.1764C15.2337 33.3567 15.4012 33.5798 15.5159 33.8307C15.6307 34.0815 15.6901 34.3542 15.69 34.63V39.34C15.6887 39.4525 15.7097 39.5641 15.7518 39.6684C15.7939 39.7726 15.8563 39.8675 15.9354 39.9475C16.0145 40.0275 16.1086 40.091 16.2124 40.1344C16.3162 40.1777 16.4275 40.2 16.54 40.2H20C20.2281 40.2 20.4468 40.1094 20.6081 39.9481C20.7694 39.7868 20.86 39.5681 20.86 39.34V32.14C20.8581 31.8131 20.7332 31.4989 20.51 31.26L14.59 26.89C14.4869 26.7735 14.361 26.6794 14.2201 26.6134C14.0792 26.5474 13.9263 26.5109 13.7708 26.5062C13.6153 26.5016 13.4605 26.5288 13.3159 26.5862C13.1713 26.6436 13.04 26.7299 12.93 26.84Z" stroke="#8DAEE6" stroke-width="1.5" stroke-linecap="round" stroke-linejoin="round"/>
<path id="Vector_16" d="M36.03 37.02C38.2502 37.02 40.05 35.2202 40.05 33C40.05 30.7798 38.2502 28.98 36.03 28.98C33.8098 28.98 32.01 30.7798 32.01 33C32.01 35.2202 33.8098 37.02 36.03 37.02Z" stroke="#E0E9F8" stroke-width="1.5" stroke-linecap="round" stroke-linejoin="round"/>
<path id="Vector_17" d="M39.94 37.65L38.6 36.09" stroke="#E0E9F8" stroke-width="1.5" stroke-linecap="round" stroke-linejoin="round"/>
<path id="Vector_18" d="M269.25 59H90.75C89.5074 59 88.5 60.0074 88.5 61.25V72.75C88.5 73.9926 89.5074 75 90.75 75H269.25C270.493 75 271.5 73.9926 271.5 72.75V61.25C271.5 60.0074 270.493 59 269.25 59Z" fill="white"/>
<path id="Vector_19" d="M269.25 59H254V75H269.25C269.847 75 270.419 74.7629 270.841 74.341C271.263 73.919 271.5 73.3467 271.5 72.75V61.25C271.5 60.6533 271.263 60.081 270.841 59.659C270.419 59.2371 269.847 59 269.25 59Z" fill="#E0E9F8"/>
<path id="Vector_20" d="M262.75 70.17C264.65 70.17 266.19 68.6299 266.19 66.73C266.19 64.8302 264.65 63.29 262.75 63.29C260.85 63.29 259.31 64.8302 259.31 66.73C259.31 68.6299 260.85 70.17 262.75 70.17Z" stroke="#C2C9E9" stroke-width="1.5" stroke-linecap="round" stroke-linejoin="round"/>
<path id="Vector_21" d="M266.09 70.71L264.95 69.38" stroke="#C2C9E9" stroke-width="1.5" stroke-linecap="round" stroke-linejoin="round"/>
<path id="Vector_22" d="M16.36 108.09C18.8563 108.09 20.88 106.066 20.88 103.57C20.88 101.074 18.8563 99.05 16.36 99.05C13.8637 99.05 11.84 101.074 11.84 103.57C11.84 106.066 13.8637 108.09 16.36 108.09Z" fill="#7736F6"/>
<path id="Vector_23" d="M344.61 151.51H282.25C280.731 151.51 279.5 152.741 279.5 154.26V229.42C279.5 230.939 280.731 232.17 282.25 232.17H344.61C346.129 232.17 347.36 230.939 347.36 229.42V154.26C347.36 152.741 346.129 151.51 344.61 151.51Z" fill="white"/>
<path id="Vector_24" d="M61.83 100.67H26.17C25.8 100.67 25.5 100.97 25.5 101.34V105.67C25.5 106.04 25.8 106.34 26.17 106.34H61.83C62.2 106.34 62.5 106.04 62.5 105.67V101.34C62.5 100.97 62.2 100.67 61.83 100.67Z" fill="#A4B5E9"/>
<path id="Vector_25" d="M98.24 30.48H49.75C49.38 30.48 49.08 30.78 49.08 31.15V35.48C49.08 35.85 49.38 36.15 49.75 36.15H98.24C98.61 36.15 98.91 35.85 98.91 35.48V31.15C98.91 30.78 98.61 30.48 98.24 30.48Z" fill="#E0E9F8"/>
<path id="Vector_26" d="M16.36 121.34C18.8563 121.34 20.88 119.316 20.88 116.82C20.88 114.324 18.8563 112.3 16.36 112.3C13.8637 112.3 11.84 114.324 11.84 116.82C11.84 119.316 13.8637 121.34 16.36 121.34Z" fill="#A4B5E9"/>
<path id="Vector_27" d="M61.83 113.92H26.17C25.8 113.92 25.5 114.22 25.5 114.59V118.92C25.5 119.29 25.8 119.59 26.17 119.59H61.83C62.2 119.59 62.5 119.29 62.5 118.92V114.59C62.5 114.22 62.2 113.92 61.83 113.92Z" fill="#A4B5E9"/>
<path id="Vector_28" d="M36.5 130H12.51C12.14 130 11.84 130.3 11.84 130.67V132.16C11.84 132.53 12.14 132.83 12.51 132.83H36.5C36.87 132.83 37.17 132.53 37.17 132.16V130.67C37.17 130.3 36.87 130 36.5 130Z" fill="#F577B6"/>
<path id="Vector_29" d="M16.36 147.84C18.8563 147.84 20.88 145.816 20.88 143.32C20.88 140.824 18.8563 138.8 16.36 138.8C13.8637 138.8 11.84 140.824 11.84 143.32C11.84 145.816 13.8637 147.84 16.36 147.84Z" fill="white"/>
<path id="Vector_30" d="M61.83 140.42H26.17C25.8 140.42 25.5 140.72 25.5 141.09V145.42C25.5 145.79 25.8 146.09 26.17 146.09H61.83C62.2 146.09 62.5 145.79 62.5 145.42V141.09C62.5 140.72 62.2 140.42 61.83 140.42Z" fill="#A4B5E9"/>
<path id="Vector_31" d="M16.36 161.09C18.8563 161.09 20.88 159.066 20.88 156.57C20.88 154.074 18.8563 152.05 16.36 152.05C13.8637 152.05 11.84 154.074 11.84 156.57C11.84 159.066 13.8637 161.09 16.36 161.09Z" fill="#A4B5E9"/>
<path id="Vector_32" d="M61.83 153.67H26.17C25.8 153.67 25.5 153.97 25.5 154.34V158.67C25.5 159.04 25.8 159.34 26.17 159.34H61.83C62.2 159.34 62.5 159.04 62.5 158.67V154.34C62.5 153.97 62.2 153.67 61.83 153.67Z" fill="#A4B5E9"/>
<path id="Vector_33" d="M16.36 174.34C18.8563 174.34 20.88 172.316 20.88 169.82C20.88 167.324 18.8563 165.3 16.36 165.3C13.8637 165.3 11.84 167.324 11.84 169.82C11.84 172.316 13.8637 174.34 16.36 174.34Z" fill="#A4B5E9"/>
<path id="Vector_34" d="M61.83 166.92H26.17C25.8 166.92 25.5 167.22 25.5 167.59V171.92C25.5 172.29 25.8 172.59 26.17 172.59H61.83C62.2 172.59 62.5 172.29 62.5 171.92V167.59C62.5 167.22 62.2 166.92 61.83 166.92Z" fill="#A4B5E9"/>
<path id="Vector_35" d="M16.36 187.59C18.8563 187.59 20.88 185.566 20.88 183.07C20.88 180.574 18.8563 178.55 16.36 178.55C13.8637 178.55 11.84 180.574 11.84 183.07C11.84 185.566 13.8637 187.59 16.36 187.59Z" fill="white"/>
<path id="Vector_36" d="M61.83 180.17H26.17C25.8 180.17 25.5 180.47 25.5 180.84V185.17C25.5 185.54 25.8 185.84 26.17 185.84H61.83C62.2 185.84 62.5 185.54 62.5 185.17V180.84C62.5 180.47 62.2 180.17 61.83 180.17Z" fill="#A4B5E9"/>
<path id="Vector_37" d="M36.5 196.25H12.51C12.14 196.25 11.84 196.55 11.84 196.92V198.41C11.84 198.78 12.14 199.08 12.51 199.08H36.5C36.87 199.08 37.17 198.78 37.17 198.41V196.92C37.17 196.55 36.87 196.25 36.5 196.25Z" fill="#F577B6"/>
<path id="Vector_38" d="M16.36 214.09C18.8563 214.09 20.88 212.066 20.88 209.57C20.88 207.074 18.8563 205.05 16.36 205.05C13.8637 205.05 11.84 207.074 11.84 209.57C11.84 212.066 13.8637 214.09 16.36 214.09Z" fill="#A4B5E9"/>
<path id="Vector_39" d="M61.83 206.67H26.17C25.8 206.67 25.5 206.97 25.5 207.34V211.67C25.5 212.04 25.8 212.34 26.17 212.34H61.83C62.2 212.34 62.5 212.04 62.5 211.67V207.34C62.5 206.97 62.2 206.67 61.83 206.67Z" fill="#A4B5E9"/>
<path id="Vector_40" d="M16.36 227.34C18.8563 227.34 20.88 225.316 20.88 222.82C20.88 220.324 18.8563 218.3 16.36 218.3C13.8637 218.3 11.84 220.324 11.84 222.82C11.84 225.316 13.8637 227.34 16.36 227.34Z" fill="white"/>
<path id="Vector_41" d="M61.83 219.92H26.17C25.8 219.92 25.5 220.22 25.5 220.59V224.92C25.5 225.29 25.8 225.59 26.17 225.59H61.83C62.2 225.59 62.5 225.29 62.5 224.92V220.59C62.5 220.22 62.2 219.92 61.83 219.92Z" fill="#A4B5E9"/>
<path id="Vector_42" d="M270.25 97.5H76.75C75.2312 97.5 74 98.7312 74 100.25V158.25C74 159.769 75.2312 161 76.75 161H270.25C271.769 161 273 159.769 273 158.25V100.25C273 98.7312 271.769 97.5 270.25 97.5Z" fill="white"/>
<path id="Vector_43" d="M129.33 103.5H80.84C80.47 103.5 80.17 103.8 80.17 104.17V108.5C80.17 108.87 80.47 109.17 80.84 109.17H129.33C129.7 109.17 130 108.87 130 108.5V104.17C130 103.8 129.7 103.5 129.33 103.5Z" fill="#E0E9F8"/>
<path id="Vector_44" d="M265.31 149.22H80.84C80.47 149.22 80.17 149.52 80.17 149.89V154.22C80.17 154.59 80.47 154.89 80.84 154.89H265.31C265.68 154.89 265.98 154.59 265.98 154.22V149.89C265.98 149.52 265.68 149.22 265.31 149.22Z" fill="#E0E9F8"/>
<path id="Vector_45" d="M185.33 103.5H136.84C136.47 103.5 136.17 103.8 136.17 104.17V108.5C136.17 108.87 136.47 109.17 136.84 109.17H185.33C185.7 109.17 186 108.87 186 108.5V104.17C186 103.8 185.7 103.5 185.33 103.5Z" fill="#E0E9F8"/>
<path id="Vector_46" d="M241.33 103.5H192.84C192.47 103.5 192.17 103.8 192.17 104.17V108.5C192.17 108.87 192.47 109.17 192.84 109.17H241.33C241.7 109.17 242 108.87 242 108.5V104.17C242 103.8 241.7 103.5 241.33 103.5Z" fill="#E0E9F8"/>
<path id="Vector_47" d="M240.71 120.25H81.46C80.7476 120.25 80.17 120.828 80.17 121.54V139.13C80.17 139.842 80.7476 140.42 81.46 140.42H240.71C241.422 140.42 242 139.842 242 139.13V121.54C242 120.828 241.422 120.25 240.71 120.25Z" fill="#CEDFE7"/>
<path id="Vector_48" d="M270.25 168.67H76.75C75.2312 168.67 74 169.901 74 171.42V229.42C74 230.939 75.2312 232.17 76.75 232.17H270.25C271.769 232.17 273 230.939 273 229.42V171.42C273 169.901 271.769 168.67 270.25 168.67Z" fill="white"/>
<path id="Vector_49" d="M129.33 174.67H80.84C80.47 174.67 80.17 174.97 80.17 175.34V179.67C80.17 180.04 80.47 180.34 80.84 180.34H129.33C129.7 180.34 130 180.04 130 179.67V175.34C130 174.97 129.7 174.67 129.33 174.67Z" fill="#E0E9F8"/>
<path id="Vector_50" d="M265.31 220.39H80.84C80.47 220.39 80.17 220.69 80.17 221.06V225.39C80.17 225.76 80.47 226.06 80.84 226.06H265.31C265.68 226.06 265.98 225.76 265.98 225.39V221.06C265.98 220.69 265.68 220.39 265.31 220.39Z" fill="#E0E9F8"/>
<path id="Vector_51" d="M185.33 174.67H136.84C136.47 174.67 136.17 174.97 136.17 175.34V179.67C136.17 180.04 136.47 180.34 136.84 180.34H185.33C185.7 180.34 186 180.04 186 179.67V175.34C186 174.97 185.7 174.67 185.33 174.67Z" fill="#E0E9F8"/>
<path id="Vector_52" d="M241.33 174.67H192.84C192.47 174.67 192.17 174.97 192.17 175.34V179.67C192.17 180.04 192.47 180.34 192.84 180.34H241.33C241.7 180.34 242 180.04 242 179.67V175.34C242 174.97 241.7 174.67 241.33 174.67Z" fill="#E0E9F8"/>
<path id="Vector_53" d="M240.71 191.42H81.46C80.7476 191.42 80.17 191.998 80.17 192.71V210.3C80.17 211.012 80.7476 211.59 81.46 211.59H240.71C241.422 211.59 242 211.012 242 210.3V192.71C242 191.998 241.422 191.42 240.71 191.42Z" fill="#CEDFE7"/>
<path id="Vector_54" d="M327.15 159.33H341.51C341.696 159.331 341.88 159.296 342.053 159.226C342.225 159.155 342.382 159.052 342.513 158.921C342.645 158.79 342.75 158.634 342.822 158.462C342.893 158.29 342.93 158.106 342.93 157.92V157.92C342.931 157.733 342.896 157.548 342.825 157.375C342.754 157.202 342.649 157.045 342.517 156.913C342.385 156.781 342.228 156.676 342.055 156.605C341.882 156.534 341.697 156.499 341.51 156.5H327.15C326.964 156.5 326.78 156.537 326.608 156.608C326.436 156.68 326.28 156.785 326.149 156.917C326.018 157.049 325.915 157.205 325.844 157.377C325.774 157.55 325.739 157.734 325.74 157.92V157.92C325.74 158.294 325.889 158.653 326.153 158.917C326.417 159.181 326.776 159.33 327.15 159.33V159.33Z" fill="#E0E9F8"/>
<path id="Vector_55" d="M292.62 175.53C295.116 175.53 297.14 173.506 297.14 171.01C297.14 168.514 295.116 166.49 292.62 166.49C290.124 166.49 288.1 168.514 288.1 171.01C288.1 173.506 290.124 175.53 292.62 175.53Z" fill="#7736F6"/>
<path id="Vector_56" d="M338.09 168.1H302.43C302.06 168.1 301.76 168.4 301.76 168.77V173.1C301.76 173.47 302.06 173.77 302.43 173.77H338.09C338.46 173.77 338.76 173.47 338.76 173.1V168.77C338.76 168.4 338.46 168.1 338.09 168.1Z" fill="#E0E9F8"/>
<path id="Vector_57" d="M338.09 181.35H288.77C288.4 181.35 288.1 181.65 288.1 182.02V186.35C288.1 186.72 288.4 187.02 288.77 187.02H338.09C338.46 187.02 338.76 186.72 338.76 186.35V182.02C338.76 181.65 338.46 181.35 338.09 181.35Z" fill="#A4B5E9"/>
<path id="Vector_58" d="M292.62 211.11C295.116 211.11 297.14 209.086 297.14 206.59C297.14 204.094 295.116 202.07 292.62 202.07C290.124 202.07 288.1 204.094 288.1 206.59C288.1 209.086 290.124 211.11 292.62 211.11Z" fill="#7736F6"/>
<path id="Vector_59" d="M338.09 203.68H302.43C302.06 203.68 301.76 203.98 301.76 204.35V208.68C301.76 209.05 302.06 209.35 302.43 209.35H338.09C338.46 209.35 338.76 209.05 338.76 208.68V204.35C338.76 203.98 338.46 203.68 338.09 203.68Z" fill="#E0E9F8"/>
<path id="Vector_60" d="M338.09 216.93H288.77C288.4 216.93 288.1 217.23 288.1 217.6V221.93C288.1 222.3 288.4 222.6 288.77 222.6H338.09C338.46 222.6 338.76 222.3 338.76 221.93V217.6C338.76 217.23 338.46 216.93 338.09 216.93Z" fill="#A4B5E9"/>
<path id="Vector_61" d="M325.61 28.58L326.61 30.58C326.723 30.8095 326.891 31.0078 327.098 31.1577C327.306 31.3076 327.547 31.4045 327.8 31.44L330.02 31.76C330.106 31.7749 330.187 31.8132 330.253 31.8708C330.319 31.9283 330.368 32.0028 330.395 32.0863C330.422 32.1698 330.425 32.259 330.405 32.3442C330.385 32.4295 330.342 32.5076 330.28 32.57L328.67 34.14C328.486 34.3189 328.349 34.54 328.271 34.7841C328.193 35.0281 328.175 35.2876 328.22 35.54L328.6 37.75C328.613 37.837 328.602 37.9258 328.568 38.0069C328.534 38.0879 328.478 38.1581 328.407 38.2097C328.336 38.2613 328.252 38.2923 328.164 38.2994C328.076 38.3065 327.989 38.2894 327.91 38.25L325.91 37.25C325.681 37.1316 325.428 37.0699 325.17 37.0699C324.912 37.0699 324.659 37.1316 324.43 37.25L322.43 38.25C322.351 38.2894 322.264 38.3065 322.176 38.2994C322.088 38.2923 322.004 38.2613 321.933 38.2097C321.862 38.1581 321.806 38.0879 321.772 38.0069C321.738 37.9258 321.727 37.837 321.74 37.75L322.12 35.54C322.165 35.2876 322.148 35.0281 322.069 34.7841C321.991 34.54 321.854 34.3189 321.67 34.14L320.06 32.57C319.998 32.5076 319.955 32.4295 319.935 32.3442C319.915 32.259 319.918 32.1698 319.945 32.0863C319.972 32.0028 320.021 31.9283 320.087 31.8708C320.153 31.8132 320.234 31.7749 320.32 31.76L322.54 31.44C322.793 31.4045 323.034 31.3076 323.242 31.1577C323.449 31.0078 323.617 30.8095 323.73 30.58L324.73 28.58C324.767 28.4944 324.829 28.4215 324.907 28.3703C324.985 28.3191 325.077 28.2918 325.17 28.2918C325.263 28.2918 325.355 28.3191 325.433 28.3703C325.511 28.4215 325.573 28.4944 325.61 28.58V28.58Z" fill="#CEDFE7"/>
</g>
</g>
</g>
<defs>
<linearGradient id="paint0_linear" x1="0" y1="67" x2="360" y2="67" gradientUnits="userSpaceOnUse">
<stop stop-color="#F577B6"/>
<stop offset="1" stop-color="#FF8262"/>
</linearGradient>
<clipPath id="clip0">
<rect width="360" height="244.66" fill="white"/>
</clipPath>
</defs>
</svg>
