<svg width="512" height="512" viewBox="0 0 512 512" fill="none" xmlns="http://www.w3.org/2000/svg">
	<path id="technologies" d="M495.633 352.944L459.773 415.057C457.639 418.751 453.109 420.311 449.154 418.714L396.367 397.405C391.982 395.636 389.862 390.647 391.632 386.263C393.402 381.876 398.39 379.756 402.776 381.528L448.664 400.052L477.085 350.825L438.147 320.386C435.352 318.201 434.195 314.52 435.236 311.128C446.021 276.02 446.433 237.323 435.236 200.874C434.195 197.482 435.352 193.801 438.147 191.616L477.085 161.177L448.664 111.95L402.776 130.474C399.485 131.804 395.718 130.964 393.302 128.366C367.53 100.655 334.535 81.588 297.888 73.226C294.426 72.4363 291.81 69.5908 291.315 66.0732L284.421 17.1221H227.579L220.685 66.0711C220.19 69.5876 217.574 72.4331 214.112 73.2239C177.463 81.5859 144.47 100.654 118.698 128.364C116.282 130.962 112.515 131.802 109.224 130.472L63.3358 111.948L34.9142 161.175L73.852 191.614C76.6472 193.799 77.804 197.48 76.7628 200.872C65.978 235.98 65.566 274.676 76.7628 311.126C77.804 314.518 76.6472 318.199 73.852 320.384L34.9142 350.823L63.3358 400.05L109.224 381.526C112.515 380.196 116.283 381.036 118.698 383.634C144.47 411.345 177.465 430.412 214.112 438.774C217.574 439.564 220.19 442.409 220.685 445.927L227.579 494.876H284.421L291.315 445.927C291.81 442.41 294.426 439.565 297.888 438.774C317.955 434.196 337.03 426.358 354.58 415.484C358.603 412.996 363.877 414.235 366.367 418.252C368.857 422.271 367.618 427.549 363.599 430.04C346.126 440.866 327.266 448.934 307.461 454.064L300.339 504.631C299.744 508.855 296.128 511.998 291.862 511.998H220.14C215.874 511.998 212.258 508.855 211.663 504.631L204.541 454.064C168.736 444.799 136.347 426.081 110.256 399.574L62.8479 418.711C58.8916 420.31 54.3628 418.749 52.2289 415.053L16.3677 352.941C14.2338 349.246 15.1477 344.543 18.509 341.915L58.7407 310.464C48.9532 274.948 48.9511 237.054 58.7407 201.53L18.509 170.078C15.1477 167.45 14.2338 162.748 16.3677 159.053L52.2289 96.9402C54.3628 93.245 58.8905 91.6848 62.8479 93.2825L110.256 112.42C136.347 85.9125 168.736 67.1947 204.541 57.9295L211.663 7.36252C212.257 3.14298 215.873 0 220.139 0H291.861C296.127 0 299.743 3.14298 300.338 7.3668L307.46 57.9338C343.265 67.199 375.654 85.9167 401.745 112.424L449.154 93.2867C453.111 91.6912 457.64 93.2482 459.773 96.9445L495.633 159.057C497.767 162.752 496.853 167.454 493.492 170.083L453.26 201.534C463.048 237.05 463.05 274.944 453.26 310.468L493.492 341.919C496.853 344.547 497.767 349.248 495.633 352.944V352.944ZM241.976 296.726L284.782 223.956C287.179 219.88 285.819 214.633 281.744 212.236C277.67 209.84 272.422 211.199 270.024 215.274L227.218 288.044C224.821 292.12 226.181 297.367 230.256 299.764C234.334 302.161 239.58 300.8 241.976 296.726V296.726ZM208.547 223.181C205.204 219.84 199.784 219.839 196.44 223.181L169.674 249.947C166.333 253.289 166.331 258.71 169.674 262.054L196.44 288.82C199.784 292.164 205.203 292.162 208.547 288.82C211.891 285.476 211.891 280.056 208.547 276.713L187.834 256.002L208.547 235.29C211.891 231.945 211.891 226.525 208.547 223.181ZM308.437 291.328C310.628 291.328 312.819 290.492 314.491 288.82L341.257 262.053C344.598 258.711 344.6 253.29 341.257 249.946L314.491 223.18C311.148 219.838 305.727 219.838 302.384 223.18C299.04 226.524 299.04 231.944 302.384 235.287L323.097 255.998L302.384 276.711C296.973 282.125 300.879 291.328 308.437 291.328ZM205.899 392.643C222.24 398.634 239.182 401.617 256.083 401.616C361.839 401.61 432.717 291.184 388.045 194.801C354.301 121.993 267.613 90.2101 194.801 123.954C102.235 166.855 81.2477 290.203 155.281 361.108C158.695 364.379 164.116 364.262 167.385 360.847C170.655 357.433 170.539 352.013 167.124 348.743C101.845 286.219 120.282 177.362 201.999 139.489C266.247 109.714 342.735 137.756 372.509 202.001C402.285 266.244 374.242 342.735 309.997 372.51C278.875 386.935 243.998 388.375 211.79 376.567C207.352 374.942 202.433 377.22 200.805 381.658C199.18 386.098 201.459 391.016 205.899 392.643V392.643Z" fill="#FFBB37"/>
</svg>
